# xmcd
#
# Track frame offsets:
#	150
#	21108
#	38737
#	57077
#	79053
#	101852
#	121287
#	137819
#	154705
#	176009
#	196269
#	214548
#	232120
#	249214
#	272111
#
# Disc length: 3841 seconds
#
# Revision: 1
# Processed by: cddbd v1.5.1PL2 Copyright (c) Steve Scherf et al.
# Submitted via: audiograbber 1.83.01
#
DISCID=c90eff0f
DTITLE=Various Artist - SF010
DYEAR=1900
DGENRE=
TTITLE0=Whigfield - Saturday Night
TTITLE1=Take That - Sure
TTITLE2=Cyndi Lauper - Girls Just Wanna Have Fun
TTITLE3=Madonna - Secret
TTITLE4=Bon Jovi - Always
TTITLE5=Brand New Heavies - Midnight At The Oasis
TTITLE6=Status Quo - Whatever You Want
TTITLE7=Madness - It Must Be Love
TTITLE8=Squeeze - Labelled With Love
TTITLE9=Let Loose - Crazy For You
TTITLE10=Status Quo - Caroline
TTITLE11=Ace Of Base - Living In Danger
TTITLE12=Sweet - Ballroom Blitz
TTITLE13=Gloria Estefan - Hold Me Thrill Me Kiss Me
TTITLE14=Take That - Babe
EXTD=
EXTT0=
EXTT1=
EXTT2=
EXTT3=
EXTT4=
EXTT5=
EXTT6=
EXTT7=
EXTT8=
EXTT9=
EXTT10=
EXTT11=
EXTT12=
EXTT13=
EXTT14=
PLAYORDER=
